<?xml version="1.0"?>
<svg xmlns="http://www.w3.org/2000/svg" xmlns:xlink="http://www.w3.org/1999/xlink" version="1.1" id="Capa_1" x="0px" y="0px" viewBox="0 0 501.216 501.216" style="enable-background:new 0 0 501.216 501.216;" xml:space="preserve" width="512px" height="512px"><g><g>
	<g>
		<path d="M501.216,194.608l-14.032-49.104c-3.832-13.384-14.104-23.656-27.48-27.472l-33.096-9.456v-6.288    c9.792-8.792,16-21.504,16-35.68v-16c0-26.472-21.528-48-48-48s-48,21.528-48,48v16c0,14.168,6.208,26.88,16,35.68v6.288    l-33.104,9.464c-2.976,0.848-5.768,2.152-8.448,3.648c-9.2-6.736-19.424-12.168-30.448-16.08v-7c0-22.056-17.944-40-40-40    c-22.056,0-40,17.944-40,40v7c-11.024,3.912-21.248,9.344-30.448,16.08c-2.68-1.496-5.472-2.8-8.448-3.648l-33.104-9.464v-6.288    c9.792-8.792,16-21.504,16-35.68v-16c0-26.472-21.528-48-48-48s-48,21.528-48,48v16c0,14.168,6.208,26.88,16,35.68v6.288    l-33.104,9.464c-13.376,3.816-23.648,14.088-27.48,27.472L0,194.608h133.176c-1.624,7.816-2.568,15.824-2.568,24    c0,52.128,33.464,96.472,80,113v23h-16v16h16v16h-16v16h16v56c0,22.056,17.944,40,40,40c22.056,0,40-17.944,40-40v-56h16v-16h-16    v-16h16v-16h-16v-23c46.536-16.528,80-60.872,80-113c0-8.176-0.944-16.184-2.568-24H501.216z M362.608,50.608    c0-17.648,14.352-32,32-32s32,14.352,32,32v16c0,17.648-14.352,32-32,32s-32-14.352-32-32V50.608z M410.608,111.808v2.8    c0,8.824-7.176,16-16,16c-8.824,0-16-7.176-16-16v-2.8c5.016,1.776,10.384,2.8,16,2.8    C400.224,114.608,405.592,113.584,410.608,111.808z M226.608,98.608c0-13.232,10.768-24,24-24s24,10.768,24,24v16    c0,13.232-10.768,24-24,24s-24-10.768-24-24V98.608z M250.608,178.608c9.912,0,18.432-6.04,22.088-14.624l14.128,2.824    c8.432,1.68,15.352,7.792,18.072,15.944l6.608,19.856H189.712l6.608-19.848c2.72-8.152,9.64-14.264,18.072-15.944l14.128-2.832    C232.176,172.568,240.696,178.608,250.608,178.608z M242.608,154.608V153.8c2.584,0.528,5.264,0.808,8,0.808    c2.736,0,5.416-0.28,8-0.808v0.808c0,4.408-3.584,8-8,8S242.608,159.016,242.608,154.608z M74.608,50.608    c0-17.648,14.352-32,32-32s32,14.352,32,32v16c0,17.648-14.352,32-32,32s-32-14.352-32-32V50.608z M122.608,111.808v2.8    c0,8.824-7.176,16-16,16s-16-7.176-16-16v-2.8c5.016,1.776,10.384,2.8,16,2.8C112.224,114.608,117.592,113.584,122.608,111.808z     M21.216,178.608l8.2-28.704c2.288-8.032,8.456-14.192,16.48-16.488l30.496-8.712c4.256,12.68,16.12,21.904,30.216,21.904    s25.96-9.224,30.216-21.904l29.76,8.504c-12.872,12.728-22.8,28.272-28.936,45.4H21.216z M274.608,458.608    c0,13.232-10.768,24-24,24s-24-10.768-24-24v-56h48V458.608z M274.608,386.608h-48v-16h48V386.608z M274.608,354.608h-48v-18.416    c7.76,1.576,15.784,2.416,24,2.416s16.24-0.84,24-2.416V354.608z M250.608,322.608c-57.344,0-104-46.656-104-104    c0-42.24,26.2-80.448,64.784-96.232c1.96,9.904,7.648,18.408,15.464,24.232h-0.248v1.44l-15.36,3.072    c-14.04,2.808-25.576,12.992-30.104,26.576l-13.64,40.912h166.2l-13.64-40.912c-4.52-13.584-16.064-23.768-30.104-26.568    l-15.352-3.08v-1.44h-0.248c7.816-5.816,13.504-14.328,15.464-24.232c38.584,15.784,64.784,53.992,64.784,96.232    C354.608,275.952,307.952,322.608,250.608,322.608z M334.632,133.208l29.76-8.504c4.256,12.68,16.12,21.904,30.216,21.904    s25.96-9.224,30.216-21.904l30.496,8.712c8.024,2.296,14.184,8.456,16.48,16.488l8.2,28.704H363.568    C357.424,161.48,347.504,145.928,334.632,133.208z" data-original="#000000" class="active-path" data-old_color="#000000" fill="#0D0081"/>
	</g>
</g><g>
	<g>
		<path d="M346.608,410.608c-13.232,0-24,10.768-24,24s10.768,24,24,24s24-10.768,24-24S359.84,410.608,346.608,410.608z     M346.608,442.608c-4.416,0-8-3.592-8-8c0-4.408,3.584-8,8-8c4.416,0,8,3.592,8,8    C354.608,439.016,351.024,442.608,346.608,442.608z" data-original="#000000" class="active-path" data-old_color="#000000" fill="#0D0081"/>
	</g>
</g><g>
	<g>
		<path d="M154.608,410.608c-13.232,0-24,10.768-24,24s10.768,24,24,24s24-10.768,24-24S167.84,410.608,154.608,410.608z     M154.608,442.608c-4.416,0-8-3.592-8-8c0-4.408,3.584-8,8-8s8,3.592,8,8C162.608,439.016,159.024,442.608,154.608,442.608z" data-original="#000000" class="active-path" data-old_color="#000000" fill="#0D0081"/>
	</g>
</g><g>
	<g>
		<polygon points="482.608,258.608 482.608,426.608 386.608,426.608 386.608,442.608 498.608,442.608 498.608,258.608   " data-original="#000000" class="active-path" data-old_color="#000000" fill="#0D0081"/>
	</g>
</g><g>
	<g>
		<polygon points="426.608,258.608 426.608,354.608 386.608,354.608 386.608,370.608 442.608,370.608 442.608,258.608   " data-original="#000000" class="active-path" data-old_color="#000000" fill="#0D0081"/>
	</g>
</g><g>
	<g>
		<polygon points="18.608,426.608 18.608,258.608 2.608,258.608 2.608,442.608 114.608,442.608 114.608,426.608   " data-original="#000000" class="active-path" data-old_color="#000000" fill="#0D0081"/>
	</g>
</g><g>
	<g>
		<polygon points="74.608,354.608 74.608,258.608 58.608,258.608 58.608,370.608 114.608,370.608 114.608,354.608   " data-original="#000000" class="active-path" data-old_color="#000000" fill="#0D0081"/>
	</g>
</g><g>
	<g>
		<rect x="322.608" y="354.608" width="16" height="16" data-original="#000000" class="active-path" data-old_color="#000000" fill="#0D0081"/>
	</g>
</g><g>
	<g>
		<rect x="354.608" y="354.608" width="16" height="16" data-original="#000000" class="active-path" data-old_color="#000000" fill="#0D0081"/>
	</g>
</g><g>
	<g>
		<rect x="130.608" y="354.608" width="16" height="16" data-original="#000000" class="active-path" data-old_color="#000000" fill="#0D0081"/>
	</g>
</g><g>
	<g>
		<rect x="162.608" y="354.608" width="16" height="16" data-original="#000000" class="active-path" data-old_color="#000000" fill="#0D0081"/>
	</g>
</g></g> </svg>
