<!-- Generated by IcoMoon.io -->
<svg version="1.1" xmlns="http://www.w3.org/2000/svg" width="30" height="30" viewBox="0 0 64 64">
<title>idea</title>
<path fill="#c25608" d="M13 26h-6c-0.6 0-1 0.4-1 1s0.4 1 1 1h6c0.6 0 1-0.4 1-1s-0.4-1-1-1z"></path>
<path fill="#c25608" d="M18 14.3c0.2 0.2 0.5 0.3 0.7 0.3s0.5-0.1 0.7-0.3c0.4-0.4 0.4-1 0-1.4l-4.2-4.2c-0.4-0.4-1-0.4-1.4 0s-0.4 1 0 1.4l4.2 4.2z"></path>
<path fill="#c25608" d="M32 9c0.6 0 1-0.4 1-1v-6c0-0.6-0.4-1-1-1s-1 0.4-1 1v6c0 0.6 0.4 1 1 1z"></path>
<path fill="#c25608" d="M45.6 14.6c0.3 0 0.5-0.1 0.7-0.3l4.2-4.2c0.4-0.4 0.4-1 0-1.4s-1-0.4-1.4 0l-4.2 4.2c-0.4 0.4-0.4 1 0 1.4 0.2 0.2 0.4 0.3 0.7 0.3z"></path>
<path fill="#c25608" d="M57 26h-6c-0.6 0-1 0.4-1 1s0.4 1 1 1h6c0.6 0 1-0.4 1-1s-0.4-1-1-1z"></path>
<path fill="#c25608" d="M32.6 14c-8.7 0-16.1 7-16.1 15.2 0 4.9 2.2 9.4 6.1 12.4l2.1 7.4h15.6l1.7-7.4c2.9-2.2 6.3-6.1 6.3-12.1 0-8.4-7.2-15.5-15.7-15.5zM40.5 40.2l-0.3 0.2-1.5 6.6h-12.5l-1.8-6.6-0.4-0.2c-3.5-2.6-5.6-6.6-5.6-11 0-7.2 6.5-13.2 14.1-13.2 7.4 0 13.7 6.2 13.7 13.5 0.1 5.4-3.1 8.8-5.7 10.7z"></path>
<path fill="#c25608" d="M38.3 54.6h-12c-0.6 0-1 0.4-1 1s0.4 1 1 1h12c0.6 0 1-0.4 1-1s-0.5-1-1-1z"></path>
<path fill="#c25608" d="M35.5 60.6h-6.3c-0.6 0-1 0.4-1 1s0.4 1 1 1h6.3c0.6 0 1-0.4 1-1s-0.4-1-1-1z"></path>
</svg>
