<?xml version="1.0"?>
<svg xmlns="http://www.w3.org/2000/svg" height="512px" viewBox="0 -49 512.001 512" width="512px"><g><path d="m489.1875 0h-258.765625c-4.140625 0-7.5 3.359375-7.5 7.5 0 4.144531 3.359375 7.5 7.5 7.5h258.769531c4.304688 0 7.808594 3.503906 7.808594 7.8125v228.34375c0 4.140625 3.359375 7.5 7.5 7.5 4.144531 0 7.5-3.359375 7.5-7.5v-228.34375c0-12.578125-10.230469-22.8125-22.8125-22.8125zm0 0" data-original="#000000" class="active-path" data-old_color="#000000" fill="#0F0088"/><path d="m504.5 276.316406c-4.144531 0-7.5 3.355469-7.5 7.5v14.828125h-482v-275.832031c0-4.308594 3.503906-7.8125 7.808594-7.8125h110.457031c4.140625 0 7.5-3.355469 7.5-7.5 0-4.140625-3.359375-7.5-7.5-7.5h-110.457031c-12.578125 0-22.808594 10.234375-22.808594 22.8125v322.058594c0 9.765625 7.945312 17.710937 17.710938 17.710937h181.757812v36.34375h-30.96875c-4.140625 0-7.5 3.359375-7.5 7.5 0 4.144531 3.359375 7.5 7.5 7.5h175c4.144531 0 7.5-3.355469 7.5-7.5 0-4.140625-3.355469-7.5-7.5-7.5h-30.96875v-36.34375h181.757812c9.765626 0 17.710938-7.945312 17.710938-17.710937v-61.054688c0-4.144531-3.355469-7.5-7.5-7.5zm-206.96875 122.609375h-83.0625v-36.34375h83.0625zm196.757812-51.34375h-476.578124c-1.496094 0-2.710938-1.214843-2.710938-2.710937v-31.226563h482v31.226563c0 1.496094-1.214844 2.710937-2.710938 2.710937zm0 0" data-original="#000000" class="active-path" data-old_color="#000000" fill="#0F0088"/><path d="m165.925781 15h31.835938c4.140625 0 7.5-3.355469 7.5-7.5 0-4.140625-3.359375-7.5-7.5-7.5h-31.835938c-4.140625 0-7.5 3.359375-7.5 7.5 0 4.144531 3.359375 7.5 7.5 7.5zm0 0" data-original="#000000" class="active-path" data-old_color="#000000" fill="#0F0088"/><path d="m46.375 56.648438c-4.140625 0-7.5 3.355468-7.5 7.5v199.042968c0 4.140625 3.359375 7.5 7.5 7.5h58.40625c4.140625 0 7.5-3.359375 7.5-7.5v-199.042968c0-4.144532-3.359375-7.5-7.5-7.5zm50.90625 15v9.054687h-43.40625v-9.054687zm-43.40625 184.042968v-159.988281h43.40625v159.988281zm0 0" data-original="#000000" class="active-path" data-old_color="#000000" fill="#0F0088"/><path d="m413.683594 138.046875h58.40625c4.144531 0 7.5-3.355469 7.5-7.5v-66.398437c0-4.144532-3.355469-7.5-7.5-7.5h-58.40625c-4.140625 0-7.5 3.355468-7.5 7.5v66.398437c0 4.144531 3.359375 7.5 7.5 7.5zm7.5-15v-27.347656h43.40625v27.347656zm43.40625-51.398437v9.054687h-43.40625v-9.054687zm0 0" data-original="#000000" class="active-path" data-old_color="#000000" fill="#0F0088"/><path d="m406.183594 236.871094c0 4.144531 3.359375 7.5 7.5 7.5h58.40625c4.144531 0 7.5-3.355469 7.5-7.5v-66.398438c0-4.144531-3.355469-7.5-7.5-7.5h-58.40625c-4.140625 0-7.5 3.355469-7.5 7.5zm15-7.5v-27.347656h43.40625v27.347656zm43.40625-51.398438v9.050782h-43.40625v-9.050782zm0 0" data-original="#000000" class="active-path" data-old_color="#000000" fill="#0F0088"/><path d="m146.613281 200.625c0 12.058594 9.816407 21.871094 21.875 21.871094 5.492188 0 10.511719-2.035156 14.355469-5.390625l51.546875 28.558593c-.171875 1.105469-.265625 2.242188-.265625 3.394532 0 12.0625 9.8125 21.875 21.875 21.875 12.058594 0 21.871094-9.8125 21.871094-21.875 0-1.152344-.089844-2.289063-.261719-3.394532l51.542969-28.558593c3.84375 3.351562 8.867187 5.390625 14.355468 5.390625 12.0625 0 21.875-9.8125 21.875-21.875 0-9.425782-5.996093-17.480469-14.375-20.546875v-46.457031c8.378907-3.070313 14.375-11.121094 14.375-20.550782 0-12.0625-9.8125-21.875-21.875-21.875-5.476562 0-10.484374 2.027344-14.324218 5.363282l-51.578125-28.574219c.175781-1.105469.265625-2.238281.265625-3.394531 0-12.0625-9.8125-21.875-21.875-21.875-12.058594 0-21.871094 9.8125-21.871094 21.875 0 1.152343.089844 2.289062.265625 3.394531l-51.578125 28.574219c-3.839844-3.335938-8.847656-5.363282-14.324219-5.363282-12.0625 0-21.875 9.8125-21.875 21.875 0 9.425782 5.996094 17.480469 14.375 20.546875v46.460938c-8.378906 3.066406-14.375 11.121093-14.375 20.550781zm109.386719-114.164062c5.476562 0 10.484375-2.027344 14.324219-5.367188l51.578125 28.578125c-.171875 1.105469-.265625 2.238281-.265625 3.394531s.09375 2.292969.265625 3.398438l-51.578125 28.574218c-3.839844-3.335937-8.847657-5.363281-14.324219-5.363281s-10.484375 2.027344-14.324219 5.363281l-51.578125-28.574218c.175782-1.105469.265625-2.242188.265625-3.398438s-.09375-2.289062-.265625-3.394531l51.578125-28.574219c3.839844 3.335938 8.847657 5.363282 14.324219 5.363282zm65.636719 114.164062c0 1.140625.089843 2.261719.257812 3.355469l-51.570312 28.570312c-1.992188-1.734375-4.296875-3.117187-6.824219-4.039062v-46.414063c8.378906-3.066406 14.375-11.121094 14.375-20.550781 0-1.15625-.09375-2.289063-.265625-3.394531l51.578125-28.574219c1.992188 1.730469 4.296875 3.113281 6.824219 4.039063v46.457031c-8.378907 3.066406-14.375 11.121093-14.375 20.550781zm-58.761719-39.078125c0 3.792969-3.085938 6.875-6.875 6.875s-6.875-3.082031-6.875-6.875c0-3.789063 3.085938-6.871094 6.875-6.871094s6.875 3.082031 6.875 6.871094zm-80.0625-31.96875 51.578125 28.574219c-.171875 1.109375-.265625 2.242187-.265625 3.398437 0 9.425781 5.996094 17.480469 14.375 20.546875v46.414063c-2.527344.925781-4.832031 2.308593-6.824219 4.039062l-51.570312-28.570312c.167969-1.09375.257812-2.214844.257812-3.355469 0-9.429688-5.996093-17.484375-14.375-20.550781v-46.457031c2.527344-.925782 4.832031-2.308594 6.824219-4.039063zm-14.324219 77.917969c-3.789062 0-6.875-3.082032-6.875-6.871094 0-3.792969 3.085938-6.875 6.875-6.875 3.792969 0 6.875 3.082031 6.875 6.875 0 3.789062-3.082031 6.871094-6.875 6.871094zm87.511719 48.4375c-3.789062 0-6.875-3.085938-6.875-6.875 0-3.789063 3.085938-6.875 6.875-6.875s6.875 3.085937 6.875 6.875c0 3.789062-3.085938 6.875-6.875 6.875zm87.511719-48.4375c-3.789063 0-6.875-3.082032-6.875-6.871094 0-3.792969 3.085937-6.875 6.875-6.875 3.789062 0 6.875 3.082031 6.875 6.875 0 3.789062-3.085938 6.871094-6.875 6.871094zm0-101.304688c3.789062 0 6.875 3.085938 6.875 6.875 0 3.789063-3.085938 6.875-6.875 6.875-3.789063 0-6.875-3.085937-6.875-6.875 0-3.789062 3.085937-6.875 6.875-6.875zm-87.511719-48.480468c3.789062 0 6.875 3.085937 6.875 6.875 0 3.789062-3.085938 6.875-6.875 6.875s-6.875-3.085938-6.875-6.875c0-3.789063 3.085938-6.875 6.875-6.875zm-87.511719 48.480468c3.792969 0 6.875 3.085938 6.875 6.875 0 3.789063-3.082031 6.875-6.875 6.875-3.789062 0-6.875-3.085937-6.875-6.875 0-3.789062 3.085938-6.875 6.875-6.875zm0 0" data-original="#000000" class="active-path" data-old_color="#000000" fill="#0F0088"/></g> </svg>
