<?xml version="1.0"?>
<svg xmlns="http://www.w3.org/2000/svg" xmlns:xlink="http://www.w3.org/1999/xlink" version="1.1" id="Layer_1_1_" x="0px" y="0px" viewBox="0 0 64 64" style="enable-background:new 0 0 64 64;" xml:space="preserve" width="512px" height="512px"><g><g>
	<rect x="7" y="57" width="2" height="2" data-original="#000000" class="active-path" data-old_color="#000000" fill="#0D0081"/>
	<rect x="11" y="57" width="2" height="2" data-original="#000000" class="active-path" data-old_color="#000000" fill="#0D0081"/>
	<rect x="15" y="57" width="2" height="2" data-original="#000000" class="active-path" data-old_color="#000000" fill="#0D0081"/>
	<rect x="49" y="57" width="8" height="2" data-original="#000000" class="active-path" data-old_color="#000000" fill="#0D0081"/>
	<path d="M61,53V20c0-2.757-2.243-5-5-5h-3V4c0-1.654-1.346-3-3-3H22c-1.654,0-3,1.346-3,3v11H8c-2.757,0-5,2.243-5,5v33H1v5   c0,2.757,2.243,5,5,5h52c2.757,0,5-2.243,5-5v-5H61z M56,17c1.654,0,3,1.346,3,3v33h-2V21c0-1.103-0.897-2-2-2h-2v-2H56z M21,4   c0-0.551,0.449-1,1-1h28c0.551,0,1,0.449,1,1v20c0,0.551-0.449,1-1,1H37.764L31,28.382V25h-9c-0.551,0-1-0.449-1-1V4z M5,20   c0-1.654,1.346-3,3-3h11v1.999L8.977,18.988c-1.09,0.013-1.977,0.91-1.977,2V53H5V20z M61,58c0,1.654-1.346,3-3,3H6   c-1.654,0-3-1.346-3-3v-3h20.602c1.438,1.293,3.278,2,5.227,2h6.343c1.948,0,3.788-0.707,5.227-2H53v-2H39.586l-0.293,0.293   C38.192,54.394,36.728,55,35.171,55h-6.343c-1.557,0-3.021-0.606-4.122-1.707L24.414,53H9L8.987,20.988L19,20.999V24   c0,1.654,1.346,3,3,3h7v4.618L38.236,27H50c1.654,0,3-1.346,3-3v-3h2v34h6V58z" data-original="#000000" class="active-path" data-old_color="#000000" fill="#0D0081"/>
	<path d="M33.849,13.179C34.026,14.234,34.93,15,36,15s1.974-0.766,2.151-1.822l0.811-4.865C38.987,8.159,39,8.003,39,7.847   C39,6.277,37.723,5,36.153,5h-0.306C34.277,5,33,6.277,33,7.847c0,0.156,0.013,0.312,0.039,0.468L33.849,13.179z M35.847,7h0.306   C36.62,7,37,7.38,37,7.847c0,0.047-0.004,0.094-0.011,0.139l-0.811,4.862c-0.029,0.176-0.327,0.175-0.356,0l-0.81-4.861   C35.004,7.941,35,7.894,35,7.847C35,7.38,35.38,7,35.847,7z" data-original="#000000" class="active-path" data-old_color="#000000" fill="#0D0081"/>
	<path d="M36,23c1.654,0,3-1.346,3-3s-1.346-3-3-3s-3,1.346-3,3S34.346,23,36,23z M36,19c0.551,0,1,0.449,1,1s-0.449,1-1,1   s-1-0.449-1-1S35.449,19,36,19z" data-original="#000000" class="active-path" data-old_color="#000000" fill="#0D0081"/>
	<path d="M11,51h20V33H11V51z M13,35h16v14H13V35z" data-original="#000000" class="active-path" data-old_color="#000000" fill="#0D0081"/>
	<rect x="19" y="41" width="8" height="2" data-original="#000000" class="active-path" data-old_color="#000000" fill="#0D0081"/>
	<rect x="15" y="41" width="2" height="2" data-original="#000000" class="active-path" data-old_color="#000000" fill="#0D0081"/>
	<rect x="15" y="45" width="8" height="2" data-original="#000000" class="active-path" data-old_color="#000000" fill="#0D0081"/>
	<rect x="25" y="45" width="2" height="2" data-original="#000000" class="active-path" data-old_color="#000000" fill="#0D0081"/>
	<path d="M53,33H33v18h20V33z M51,49H35V35h16V49z" data-original="#000000" class="active-path" data-old_color="#000000" fill="#0D0081"/>
	<rect x="41" y="41" width="8" height="2" data-original="#000000" class="active-path" data-old_color="#000000" fill="#0D0081"/>
	<rect x="37" y="41" width="2" height="2" data-original="#000000" class="active-path" data-old_color="#000000" fill="#0D0081"/>
	<rect x="37" y="45" width="8" height="2" data-original="#000000" class="active-path" data-old_color="#000000" fill="#0D0081"/>
	<rect x="47" y="45" width="2" height="2" data-original="#000000" class="active-path" data-old_color="#000000" fill="#0D0081"/>
	<rect x="37" y="37" width="12" height="2" data-original="#000000" class="active-path" data-old_color="#000000" fill="#0D0081"/>
	<rect x="15" y="37" width="12" height="2" data-original="#000000" class="active-path" data-old_color="#000000" fill="#0D0081"/>
</g></g> </svg>
