<?xml version="1.0"?>
<svg xmlns="http://www.w3.org/2000/svg" xmlns:xlink="http://www.w3.org/1999/xlink" version="1.1" id="Capa_1" x="0px" y="0px" viewBox="0 0 512 512" style="enable-background:new 0 0 512 512;" xml:space="preserve" width="512px" height="512px"><g><g>
	<g>
		<g>
			<path d="M481.51,83.149c-1.205-4.55-5.867-7.264-10.419-6.067C325.572,115.354,267.213,19.686,259.78,6.135     c-0.23-0.731-0.551-1.431-0.956-2.082c-1.695-2.37-4.429-3.776-7.343-3.776s-5.648,1.406-7.343,3.776     c-0.495,0.787-0.853,1.653-1.058,2.56c-8.482,15.223-67.174,108.322-211.046,70.477c-4.552-1.197-9.214,1.517-10.419,6.067     c-0.785,2.97-75.093,298.394,226.202,427.93c1.218,0.602,2.558,0.915,3.917,0.913c1.666-0.002,3.294-0.492,4.685-1.408     C556.45,380.817,482.296,86.118,481.51,83.149z M251.563,494.08C-8.627,380.339,26.18,143.633,36.224,95.71     c128.862,30.148,194.261-41.054,215.339-70.963c21.077,29.909,86.443,101.112,215.339,70.963v0.026     C476.945,143.633,511.753,380.339,251.563,494.08z" data-original="#000000" class="active-path" data-old_color="#0E007E" fill="#0D007E"/>
			<path d="M451.028,118.975c-1.827-1.398-4.14-1.999-6.416-1.667c-12.628,1.858-25.372,2.808-38.135,2.842     c-4.713,0-8.533,3.82-8.533,8.533s3.82,8.533,8.533,8.533v-0.009c10.631-0.019,21.253-0.646,31.812-1.877     c6.938,73.455-1.877,233.148-186.726,321.246c-17.539-8.291-34.472-17.81-50.671-28.484c-3.922-2.507-9.13-1.408-11.705,2.471     c-2.575,3.878-1.566,9.104,2.267,11.746c18.026,11.876,36.914,22.387,56.508,31.445c1.13,0.516,2.358,0.784,3.601,0.785     c1.244,0.001,2.473-0.27,3.601-0.794c206.123-96.017,207.932-276.07,199.151-349.013     C454.04,122.448,452.855,120.373,451.028,118.975z" data-original="#000000" class="active-path" data-old_color="#0E007E" fill="#0D007E"/>
			<path d="M70.579,237.798c-6.753-33.691-8.607-68.18-5.504-102.4c10.481,1.215,21.022,1.833,31.573,1.852     c57.544,1.165,113.219-20.441,154.914-60.117c23.48,22.576,51.848,39.437,82.901,49.271c4.491,1.43,9.292-1.051,10.722-5.542     s-1.051-9.292-5.542-10.722c-31.136-9.88-59.3-27.403-81.92-50.97c-3.42-3.335-8.876-3.335-12.297,0     c-38.969,40.115-92.874,62.205-148.787,60.971c-12.697-0.034-25.376-0.975-37.939-2.816c-2.286-0.352-4.615,0.267-6.426,1.707     c-1.826,1.408-3.005,3.495-3.268,5.786c-4.463,38.825-2.825,78.11,4.855,116.429c10.847,55.542,36.92,106.976,75.307,148.557     c2.073,2.236,5.182,3.197,8.155,2.519c2.973-0.677,5.359-2.889,6.259-5.803c0.9-2.914,0.177-6.086-1.896-8.322     C105.428,338.894,80.809,290.285,70.579,237.798z" data-original="#000000" class="active-path" data-old_color="#0E007E" fill="#0D007E"/>
			<path d="M72.533,426.667H55.467V409.6c0-4.713-3.82-8.533-8.533-8.533s-8.533,3.82-8.533,8.533v17.067H21.333     c-4.713,0-8.533,3.82-8.533,8.533s3.82,8.533,8.533,8.533H38.4V460.8c0,4.713,3.82,8.533,8.533,8.533s8.533-3.82,8.533-8.533     v-17.067h17.067c4.713,0,8.533-3.82,8.533-8.533S77.246,426.667,72.533,426.667z" data-original="#000000" class="active-path" data-old_color="#0E007E" fill="#0D007E"/>
			<path d="M490.667,469.333H473.6v-17.067c0-4.713-3.82-8.533-8.533-8.533s-8.533,3.821-8.533,8.533v17.067h-17.067     c-4.713,0-8.533,3.82-8.533,8.533s3.82,8.533,8.533,8.533h17.067v17.067c0,4.713,3.82,8.533,8.533,8.533s8.533-3.82,8.533-8.533     V486.4h17.067c4.713,0,8.533-3.82,8.533-8.533S495.38,469.333,490.667,469.333z" data-original="#000000" class="active-path" data-old_color="#0E007E" fill="#0D007E"/>
			<path d="M422.4,34.133h8.533v8.533c0,4.713,3.82,8.533,8.533,8.533S448,47.38,448,42.667v-8.533h8.533     c4.713,0,8.533-3.821,8.533-8.533s-3.82-8.533-8.533-8.533H448V8.533C448,3.82,444.18,0,439.467,0s-8.533,3.82-8.533,8.533v8.533     H422.4c-4.713,0-8.533,3.82-8.533,8.533S417.687,34.133,422.4,34.133z" data-original="#000000" class="active-path" data-old_color="#0E007E" fill="#0D007E"/>
			<path d="M289.963,392.533c32.972-0.042,59.691-26.761,59.733-59.733v-93.867c0-9.426-7.641-17.067-17.067-17.067h-8.533v-25.6     c0-37.703-30.564-68.267-68.267-68.267s-68.267,30.564-68.267,68.267v25.6h-8.533c-9.426,0-17.067,7.641-17.067,17.067V332.8     c0.042,32.972,26.761,59.691,59.733,59.733H289.963z M204.629,196.267c0-28.277,22.923-51.2,51.2-51.2s51.2,22.923,51.2,51.2     v25.6h-102.4V196.267z M179.883,341.333h16.213c4.713,0,8.533-3.821,8.533-8.533c0-4.713-3.82-8.533-8.533-8.533h-17.067V307.2     h17.067c4.713,0,8.533-3.82,8.533-8.533s-3.82-8.533-8.533-8.533h-17.067v-17.067h17.067c4.713,0,8.533-3.82,8.533-8.533     s-3.82-8.533-8.533-8.533h-17.067v-17.067h153.6V256h-17.067c-4.713,0-8.533,3.82-8.533,8.533s3.82,8.533,8.533,8.533h17.067     v17.067h-17.067c-4.713,0-8.533,3.82-8.533,8.533s3.82,8.533,8.533,8.533h17.067v17.067h-17.067     c-4.713,0-8.533,3.821-8.533,8.533c0,4.713,3.82,8.533,8.533,8.533h16.213c-4.083,19.852-21.546,34.108-41.813,34.133h-68.267     C201.428,375.441,183.965,361.185,179.883,341.333z" data-original="#000000" class="active-path" data-old_color="#0E007E" fill="#0D007E"/>
			<path d="M247.296,314.163V332.8c0,4.713,3.82,8.533,8.533,8.533s8.533-3.821,8.533-8.533v-18.637     c11.747-4.137,18.796-16.144,16.686-28.418c-2.11-12.274-12.765-21.236-25.219-21.212c-12.454-0.024-23.109,8.939-25.219,21.212     C228.5,298.019,235.549,310.026,247.296,314.163z M255.829,281.6c4.713,0,8.533,3.82,8.533,8.533s-3.82,8.533-8.533,8.533     s-8.533-3.82-8.533-8.533S251.117,281.6,255.829,281.6z" data-original="#000000" class="active-path" data-old_color="#0E007E" fill="#0D007E"/>
		</g>
	</g>
</g></g> </svg>
